<svg width="40" height="40" viewBox="0 0 40 40" fill="none" xmlns="http://www.w3.org/2000/svg">
<path d="M26.6667 10.4667C26.6665 11.4695 26.2699 12.4316 25.5633 13.1433C23.9367 14.7833 22.3583 16.4933 20.67 18.0733C20.4815 18.245 20.2343 18.3378 19.9794 18.3326C19.7244 18.3273 19.4812 18.2244 19.3 18.045L14.4367 13.145C13.7297 12.4329 13.333 11.4701 13.333 10.4667C13.333 9.46321 13.7297 8.50046 14.4367 7.78832C14.7894 7.43296 15.209 7.15092 15.6713 6.95845C16.1335 6.76598 16.6293 6.66689 17.13 6.66689C17.6307 6.66689 18.1265 6.76598 18.5887 6.95845C19.051 7.15092 19.4706 7.43296 19.8233 7.78832L20 7.96666L20.1767 7.78832C20.7062 7.2531 21.383 6.88754 22.1209 6.73819C22.8588 6.58885 23.6245 6.66246 24.3204 6.94967C25.0164 7.23688 25.6111 7.72469 26.0289 8.351C26.4468 8.9773 26.6688 9.71377 26.6667 10.4667Z" stroke="#191919" stroke-width="1.5" stroke-linejoin="round"/>
<path d="M30 33.3333L36.3733 26.96C36.5609 26.7726 36.6664 26.5185 36.6667 26.2533V17.5C36.6667 16.837 36.4033 16.2011 35.9344 15.7322C35.4656 15.2634 34.8297 15 34.1667 15C33.5036 15 32.8677 15.2634 32.3989 15.7322C31.9301 16.2011 31.6667 16.837 31.6667 17.5V25" stroke="#191919" stroke-width="1.5" stroke-linecap="round" stroke-linejoin="round"/>
<path d="M29.9999 26.6667L31.4299 25.2367C31.505 25.1616 31.5646 25.0725 31.6052 24.9744C31.6459 24.8763 31.6667 24.7712 31.6666 24.665C31.6664 24.5151 31.6245 24.3683 31.5456 24.2408C31.4667 24.1134 31.354 24.0104 31.2199 23.9433L30.4816 23.575C29.8561 23.2622 29.148 23.1541 28.4577 23.266C27.7673 23.3779 27.1297 23.704 26.6349 24.1983L25.1433 25.69C24.5181 26.315 24.1668 27.1627 24.1666 28.0467V33.3333M9.99992 33.3333L3.62659 26.96C3.439 26.7726 3.33349 26.5185 3.33325 26.2533V17.5C3.33325 16.837 3.59664 16.2011 4.06549 15.7322C4.53433 15.2634 5.17021 15 5.83325 15C6.49629 15 7.13218 15.2634 7.60102 15.7322C8.06986 16.2011 8.33325 16.837 8.33325 17.5V25" stroke="#191919" stroke-width="1.5" stroke-linecap="round" stroke-linejoin="round"/>
<path d="M9.99992 26.6667L8.56992 25.2367C8.49486 25.1616 8.43533 25.0725 8.39473 24.9744C8.35412 24.8763 8.33323 24.7712 8.33325 24.665C8.33325 24.36 8.50659 24.0817 8.77992 23.9433L9.51825 23.575C10.1438 23.2622 10.8518 23.1541 11.5422 23.266C12.2325 23.3779 12.8702 23.704 13.3649 24.1983L14.8566 25.69C15.4817 26.315 15.8331 27.1627 15.8333 28.0467V33.3333" stroke="#191919" stroke-width="1.5" stroke-linecap="round" stroke-linejoin="round"/>
</svg>
