<svg width="40" height="40" viewBox="0 0 40 40" fill="none" xmlns="http://www.w3.org/2000/svg">
<path d="M8.33325 33.9807H12.0998C13.7846 33.9807 15.4875 34.1562 17.1271 34.494C20.0276 35.0915 23.0813 35.1638 26.0114 34.6897C27.4563 34.4557 28.8766 34.0982 30.1624 33.4775C31.3231 32.9173 32.7447 32.1277 33.6997 31.2432C34.6534 30.36 35.6466 28.9145 36.3514 27.7845C36.9559 26.8157 36.6636 25.627 35.7074 24.905C34.6454 24.1032 33.0694 24.1033 32.0076 24.9055L28.9956 27.1807C27.8282 28.0625 26.5533 28.8742 25.0343 29.1165C24.8516 29.1457 24.6603 29.1722 24.4606 29.1953M24.4606 29.1953C24.4004 29.2023 24.3396 29.209 24.2779 29.2153M24.4606 29.1953C24.7036 29.1433 24.9448 28.9933 25.1713 28.7958C26.2433 27.8602 26.3109 26.2833 25.3808 25.2385C25.1651 24.9962 24.9124 24.794 24.6318 24.6265C19.9694 21.8457 12.7156 23.9637 8.33325 27.0715M24.4606 29.1953C24.3998 29.2083 24.3388 29.2153 24.2779 29.2153M24.2779 29.2153C23.4056 29.3048 22.3852 29.328 21.2529 29.221" stroke="#191919" stroke-width="1.5" stroke-linecap="round"/>
<path d="M8.33325 25.8333C8.33325 24.4526 7.21396 23.3333 5.83325 23.3333C4.45254 23.3333 3.33325 24.4526 3.33325 25.8333V34.1667C3.33325 35.5474 4.45254 36.6667 5.83325 36.6667C7.21396 36.6667 8.33325 35.5474 8.33325 34.1667V25.8333Z" stroke="#191919" stroke-width="1.5"/>
<g clip-path="url(#clip0_336_13485)">
<path d="M33.685 14.2783L29.4366 7.32916L25.5 14.2308C24.5833 15.6933 24.5033 17.595 25.4662 19.17C26.835 21.4087 29.7841 22.1275 32.0541 20.7771C34.3233 19.4271 35.0537 16.5187 33.685 14.2783Z" fill="#FE3434"/>
</g>
<defs>
<clipPath id="clip0_336_13485">
<rect width="15" height="15" fill="white" transform="translate(21.875 6.875)"/>
</clipPath>
</defs>
</svg>
